<?xml version="1.0" encoding="iso-8859-1"?>
<!-- Generator: Adobe Illustrator 19.0.0, SVG Export Plug-In . SVG Version: 6.00 Build 0)  -->
<svg xmlns="http://www.w3.org/2000/svg" xmlns:xlink="http://www.w3.org/1999/xlink" version="1.1" id="Layer_1" x="0px" y="0px" viewBox="0 0 512 512" style="enable-background:new 0 0 512 512;" xml:space="preserve" width="512" height="512">
<g id="XMLID_903_">
	<g id="XMLID_904_">
		<g id="XMLID_908_">
			<g id="XMLID_906_">
				<path id="XMLID_907_" style="fill:#4E7693;" d="M218.482,203.128v-48.432c0-20.688,16.831-37.518,37.518-37.518      s37.518,16.831,37.518,37.518v48.432h34.007v-48.432c0-39.439-32.086-71.526-71.526-71.526s-71.526,32.086-71.526,71.526v48.432      H218.482z"/>
			</g>
		</g>
		<g id="XMLID_910_">
			<path id="XMLID_2592_" style="fill:#FDC142;" d="M334.626,364.823H177.374c-10.732,0-19.433-8.7-19.433-19.433V214.073     c0-10.732,8.7-19.433,19.433-19.433h157.252c10.732,0,19.433,8.7,19.433,19.433v131.317     C354.059,356.123,345.359,364.823,334.626,364.823z"/>
			<path id="XMLID_911_" style="fill:#FD9E28;" d="M354.058,214.069v131.317c0,10.737-8.696,19.433-19.433,19.433h-25.301     c10.727,0,19.433-8.696,19.433-19.433V214.069c0-10.727-8.706-19.433-19.433-19.433h25.301     C345.362,194.636,354.058,203.342,354.058,214.069z"/>
			<path id="XMLID_912_" style="fill:#FC3E81;" d="M354.058,214.069V243.5H157.942v-29.431c0-10.727,8.696-19.433,19.433-19.433     h157.25C345.362,194.636,354.058,203.342,354.058,214.069z"/>
			<path id="XMLID_913_" style="fill:#F01054;" d="M354.058,214.069V243.5h-25.301v-29.431c0-10.727-8.706-19.433-19.433-19.433     h25.301C345.362,194.636,354.058,203.342,354.058,214.069z"/>
		</g>
		<path id="XMLID_914_" style="fill:#4E7693;" d="M280.852,294.301c0-13.703-11.148-24.852-24.852-24.852    s-24.852,11.148-24.852,24.852c0,11.09,7.303,20.504,17.352,23.692v14.039c0,4.143,3.357,7.5,7.5,7.5s7.5-3.357,7.5-7.5v-14.039    C273.549,314.805,280.852,305.391,280.852,294.301z M256,304.152c-5.433,0-9.852-4.419-9.852-9.852s4.419-9.852,9.852-9.852    s9.852,4.419,9.852,9.852S261.433,304.152,256,304.152z"/>
	</g>
	<g id="XMLID_917_">
		<path id="XMLID_918_" style="fill:#F01054;" d="M415.736,238.453h-30.278c-4.143,0-7.5-3.357-7.5-7.5s3.357-7.5,7.5-7.5h27.172    l30.287-30.288c1.407-1.407,3.314-2.197,5.304-2.197h22.531c4.143,0,7.5,3.357,7.5,7.5s-3.357,7.5-7.5,7.5h-19.425l-30.287,30.289    C419.633,237.663,417.726,238.453,415.736,238.453z"/>
	</g>
	<g id="XMLID_919_">
		<path id="XMLID_920_" style="fill:#F01054;" d="M470.752,323.503h-22.531c-1.989,0-3.896-0.79-5.304-2.197l-30.287-30.288h-27.172    c-4.143,0-7.5-3.357-7.5-7.5s3.357-7.5,7.5-7.5h30.278c1.989,0,3.896,0.79,5.304,2.196l30.287,30.289h19.425    c4.143,0,7.5,3.357,7.5,7.5S474.895,323.503,470.752,323.503z"/>
	</g>
	<g id="XMLID_921_">
		<g id="XMLID_922_">
			<path id="XMLID_923_" style="fill:#F01054;" d="M63.779,323.503h-40.13c-4.143,0-7.5-3.357-7.5-7.5s3.357-7.5,7.5-7.5h37.023     l30.287-30.288c1.407-1.407,3.314-2.197,5.304-2.197h30.278c4.143,0,7.5,3.357,7.5,7.5s-3.357,7.5-7.5,7.5H99.37l-30.287,30.288     C67.676,322.713,65.769,323.503,63.779,323.503z"/>
		</g>
	</g>
	<g id="XMLID_924_">
		<path id="XMLID_925_" style="fill:#F01054;" d="M126.542,186.889c-1.919,0-3.839-0.732-5.304-2.196L90.95,154.403H37.632    c-4.143,0-7.5-3.357-7.5-7.5s3.357-7.5,7.5-7.5h56.425c1.989,0,3.896,0.79,5.304,2.196l32.485,32.485    c2.929,2.93,2.929,7.678,0,10.607C130.381,186.156,128.461,186.889,126.542,186.889z"/>
	</g>
	<g id="XMLID_926_">
		<path id="XMLID_927_" style="fill:#F01054;" d="M126.542,238.567H41c-4.143,0-7.5-3.357-7.5-7.5s3.357-7.5,7.5-7.5h85.542    c4.143,0,7.5,3.357,7.5,7.5S130.685,238.567,126.542,238.567z"/>
	</g>
	<g id="XMLID_928_">
		<g id="XMLID_929_">
			<g id="XMLID_930_">
				<path id="XMLID_931_" style="fill:#F01054;" d="M119.58,453.767c-4.143,0-7.5-3.357-7.5-7.5v-51.754      c0-1.989,0.79-3.896,2.196-5.304l19.087-19.087c2.93-2.928,7.678-2.928,10.607,0c2.929,2.93,2.929,7.678,0,10.607l-16.891,16.89      v48.647C127.08,450.409,123.723,453.767,119.58,453.767z"/>
			</g>
		</g>
		<g id="XMLID_932_">
			<path id="XMLID_933_" style="fill:#F01054;" d="M396.087,472.503c-4.143,0-7.5-3.357-7.5-7.5v-67.384l-16.891-16.89     c-2.929-2.93-2.929-7.678,0-10.607c2.93-2.928,7.678-2.928,10.607,0l19.087,19.087c1.406,1.407,2.196,3.314,2.196,5.304v70.49     C403.587,469.146,400.229,472.503,396.087,472.503z"/>
		</g>
	</g>
	<g id="XMLID_934_">
		<g id="XMLID_935_">
			<g id="XMLID_936_">
				<path id="XMLID_937_" style="fill:#F01054;" d="M377,129.649c-1.919,0-3.839-0.732-5.304-2.196      c-2.929-2.93-2.929-7.678,0-10.607l16.891-16.89V65.302c0-4.143,3.357-7.5,7.5-7.5s7.5,3.357,7.5,7.5v37.761      c0,1.989-0.79,3.896-2.196,5.304l-19.087,19.087C380.839,128.917,378.919,129.649,377,129.649z"/>
			</g>
		</g>
		<g id="XMLID_938_">
			<path id="XMLID_939_" style="fill:#F01054;" d="M138.667,129.649c-1.919,0-3.839-0.732-5.304-2.196l-19.087-19.087     c-1.406-1.407-2.196-3.314-2.196-5.304V43.997c0-4.143,3.357-7.5,7.5-7.5s7.5,3.357,7.5,7.5v55.959l16.891,16.89     c2.929,2.93,2.929,7.678,0,10.607C142.506,128.917,140.586,129.649,138.667,129.649z"/>
		</g>
	</g>
	<g id="XMLID_940_">
		<path id="XMLID_941_" style="fill:#F01054;" d="M410.559,176.646H377c-4.143,0-7.5-3.357-7.5-7.5s3.357-7.5,7.5-7.5h30.452    l43.638-43.638V83.171c0-4.143,3.357-7.5,7.5-7.5s7.5,3.357,7.5,7.5v37.944c0,1.989-0.79,3.896-2.196,5.304l-48.031,48.031    C414.455,175.856,412.548,176.646,410.559,176.646z"/>
	</g>
	<g id="XMLID_942_">
		<path id="XMLID_943_" style="fill:#F01054;" d="M472.201,384.61H441.49c-1.989,0-3.896-0.79-5.304-2.196l-50.49-50.49    c-2.929-2.93-2.929-7.678,0-10.607c2.93-2.928,7.678-2.928,10.607,0l48.293,48.294h27.604c4.143,0,7.5,3.357,7.5,7.5    S476.344,384.61,472.201,384.61z"/>
	</g>
	<g id="XMLID_944_">
		<path id="XMLID_945_" style="fill:#F01054;" d="M50.022,391.187c-1.919,0-3.839-0.732-5.304-2.196    c-2.929-2.93-2.929-7.678,0-10.607l49.012-49.012c1.407-1.406,3.314-2.196,5.304-2.196h27.508c4.143,0,7.5,3.357,7.5,7.5    s-3.357,7.5-7.5,7.5h-24.401L55.326,388.99C53.861,390.454,51.941,391.187,50.022,391.187z"/>
	</g>
	<g id="XMLID_946_">
		<path id="XMLID_947_" style="fill:#FD82AC;" d="M488.351,222.117c13.04,0,23.649-10.609,23.649-23.649    s-10.609-23.649-23.649-23.649s-23.649,10.609-23.649,23.649S475.311,222.117,488.351,222.117z"/>
		<path id="XMLID_948_" style="fill:#FD82AC;" d="M488.351,292.354c-13.04,0-23.649,10.609-23.649,23.649    s10.609,23.649,23.649,23.649S512,329.043,512,316.003S501.391,292.354,488.351,292.354z"/>
		<path id="XMLID_949_" style="fill:#FD82AC;" d="M47.299,231.067c0-13.04-10.609-23.648-23.649-23.648S0,218.027,0,231.067    s10.609,23.649,23.649,23.649S47.299,244.107,47.299,231.067z"/>
		<path id="XMLID_950_" style="fill:#FD82AC;" d="M119.58,441.354c-13.04,0-23.649,10.609-23.649,23.649    s10.609,23.649,23.649,23.649s23.648-10.609,23.648-23.649S132.62,441.354,119.58,441.354z"/>
		<path id="XMLID_951_" style="fill:#FD82AC;" d="M37.632,372.853c-13.04,0-23.649,10.609-23.649,23.649    s10.609,23.648,23.649,23.648s23.649-10.608,23.649-23.648S50.672,372.853,37.632,372.853z"/>
		<path id="XMLID_952_" style="fill:#FD82AC;" d="M396.087,23.348c-13.04,0-23.649,10.609-23.649,23.649    s10.609,23.649,23.649,23.649s23.649-10.609,23.649-23.649S409.127,23.348,396.087,23.348z"/>
	</g>
	<path id="XMLID_1420_" style="fill:#FC3E81;" d="M298.969,441h-85.939c-9.219,0-16.692-7.473-16.692-16.692v0   c0-9.219,7.473-16.692,16.692-16.692h85.939c9.219,0,16.692,7.473,16.692,16.692v0C315.662,433.527,308.188,441,298.969,441z"/>
</g>















</svg>
