<svg height="485.17741pt" viewBox="0 0 485.17741 485.17741" width="485.17741pt" xmlns="http://www.w3.org/2000/svg"><path d="m287.589844 217.265625v-14.464844c0-25.285156-19.949219-45.859375-45-45.859375-25.054688 0-45 20.574219-45 45.859375v14.464844c-12.207032 2.855469-20.878906 13.683594-21 26.21875v57.75c0 14.890625 12.097656 27.355469 26.992187 27.355469h78.015625c14.890625 0 26.992188-12.464844 26.992188-27.355469v-57.746094c-.121094-12.535156-8.792969-23.367187-21-26.222656zm-45-46.324219c17.332031 0 31 14.292969 31 31.859375v13.789063h-62v-13.789063c0-17.566406 13.664062-31.859375 31-31.859375zm52 130.648438c0 7.179687-5.820313 13-13 13h-78c-7.179688 0-13-5.820313-13-13v-58c0-7.179688 5.820312-13 13-13h78c7.179687 0 13 5.820312 13 13zm0 0"/><path d="m242.375 256.640625c-7.46875-.003906-13.984375 5.066406-15.820312 12.304687-1.839844 7.238282 1.46875 14.800782 8.035156 18.363282v9.28125c0 3.863281 3.132812 7 7 7 3.863281 0 7-3.136719 7-7v-8.535156c7.207031-2.964844 11.3125-10.613282 9.800781-18.261719-1.511719-7.644531-8.21875-13.15625-16.015625-13.152344zm0 14c1.027344-.003906 1.933594.667969 2.226562 1.652344.296876.980469-.085937 2.042969-.941406 2.609375-.671875-.207032-1.367187-.3125-2.070312-.3125-.273438 0-.546875.015625-.816406.050781-.6875-.65625-.90625-1.664063-.554688-2.542969.355469-.882812 1.207031-1.457031 2.15625-1.457031zm0 0"/><path d="m433.011719 249.589844c3.503906 12.828125 15.960937 21.085937 29.144531 19.316406 13.179688-1.769531 23.019531-13.015625 23.019531-26.316406 0-13.300782-9.839843-24.550782-23.019531-26.316406-13.183594-1.769532-25.640625 6.484374-29.144531 19.316406h-44.878907c-.441406-9.449219-1.835937-18.832032-4.15625-28h27.6875c3.90625-.140625 6.980469-3.375 6.925782-7.28125v-28.71875h10.035156c1.273438 4.4375 3.613281 8.5 6.8125 11.832031 4.960938 4.988281 11.703125 7.796875 18.738281 7.8125 7.035157.011719 13.785157-2.777344 18.761719-7.746094v.007813c10.375-10.355469 10.394531-27.160156.039062-37.535156-10.355468-10.378907-27.164062-10.394532-37.539062-.039063-3.195312 3.269531-5.535156 7.277344-6.8125 11.667969h-16.960938c-3.914062.074218-7.054687 3.253906-7.074218 7.167968v28.832032h-24.867188c-14.878906-41.855469-48.078125-74.609375-90.132812-88.910156v-24.089844h30.828125c3.914062-.023438 7.097656-3.164063 7.171875-7.078125v-16.960938c4.386718-1.277343 8.394531-3.617187 11.664062-6.8125 10.355469-10.371093 10.347656-27.175781-.019531-37.539062-10.367187-10.363281-27.171875-10.363281-37.539063 0-10.371093 10.363281-10.378906 27.167969-.019531 37.539062h.082031c3.328126 3.203125 7.390626 5.539063 11.832032 6.8125v10.039063h-30.925782c-3.867187-.042969-7.035156 3.058594-7.074218 6.921875v27.148437c-8.535156-2.019531-17.238282-3.230468-26-3.617187v-44.875c12.828125-3.507813 21.085937-15.964844 19.316406-29.144531-1.769531-13.183594-13.015625-23.023438-26.316406-23.023438-13.300782 0-24.550782 9.839844-26.316406 23.023438-1.769532 13.179687 6.484374 25.636718 19.316406 29.144531v44.875c-9.449219.445312-18.832032 1.835937-28 4.15625v-27.6875c-.140625-3.902344-3.375-6.980469-7.28125-6.921875h-28.71875v-10.039063c4.4375-1.273437 8.5-3.609375 11.832031-6.8125 4.988281-4.960937 7.796875-11.699219 7.8125-18.734375.011719-7.035156-2.777344-13.785156-7.746094-18.765625h.007813c-10.355469-10.375-27.160156-10.390625-37.535156-.035156-10.378907 10.355469-10.394532 27.160156-.039063 37.535156 3.269531 3.195313 7.277344 5.535157 11.667969 6.8125v16.960938c.074218 3.914062 3.253906 7.054687 7.167968 7.078125h28.832032v24.867187c-41.855469 14.875-74.609375 48.078125-88.910156 90.132813h-24.089844v-30.832032c-.023438-3.914062-3.164063-7.09375-7.078125-7.167968h-16.960938c-1.277343-4.390625-3.617187-8.398438-6.8125-11.667969-10.371093-10.355469-27.175781-10.347656-37.539062.019531-10.363281 10.371094-10.363281 27.175782 0 37.542969s27.167969 10.375 37.539062.019531v-.082031c3.203125-3.332031 5.539063-7.394531 6.8125-11.832031h10.039063v30.925781c-.042969 3.863281 3.058594 7.03125 6.921875 7.074219h27.148437c-2.019531 8.53125-3.230468 17.238281-3.617187 26h-44.875c-3.507813-12.832032-15.964844-21.085938-29.144531-19.316406-13.183594 1.765624-23.023438 13.015624-23.023438 26.316406 0 13.300781 9.839844 24.546875 23.023438 26.316406 13.179687 1.769531 25.636718-6.488281 29.144531-19.316406h44.875c.445312 9.449218 1.835937 18.828125 4.15625 28h-27.6875c-3.902344.136718-6.980469 3.371094-6.921875 7.277344v28.722656h-10.039063c-1.273437-4.441406-3.609375-8.503906-6.8125-11.835938-4.960937-4.988281-11.699219-7.796875-18.734375-7.808594-7.035156-.011718-13.785156 2.773438-18.765625 7.746094v-.011718c-10.289062 10.371093-10.261719 27.105468.054688 37.445312 10.320312 10.339844 27.054687 10.398438 37.445312.128906 3.195313-3.269531 5.535157-7.277344 6.8125-11.664062h16.960938c3.914062-.074219 7.054687-3.257813 7.078125-7.171875v-28.828125h24.867187c14.875 41.855468 48.078125 74.605468 90.132813 88.910156v24.089844h-30.832032c-3.914062.019531-7.09375 3.160156-7.167968 7.074218v16.960938c-4.390625 1.277344-8.398438 3.617188-11.667969 6.8125-10.359375 10.375-10.351563 27.183594.019531 37.546875 10.367188 10.367187 27.175782 10.367187 37.546875 0 10.371094-10.363281 10.378907-27.171875.015625-37.546875h-.082031c-3.332031-3.199219-7.394531-5.539062-11.832031-6.8125v-10.035156h30.925781c3.863281.039062 7.03125-3.058594 7.074219-6.925782v-27.148437c8.53125 2.023437 17.238281 3.234375 26 3.617187v44.878907c-12.832032 3.503906-21.085938 15.960937-19.316406 29.144531 1.765624 13.179688 13.015624 23.019531 26.316406 23.019531 13.300781 0 24.546875-9.839843 26.316406-23.019531 1.769531-13.183594-6.488281-25.640625-19.316406-29.144531v-44.878907c9.449218-.441406 18.828125-1.835937 28-4.15625v27.6875c.136718 3.90625 3.371094 6.980469 7.277344 6.925782h28.722656v10.035156c-4.441406 1.273438-8.503906 3.613281-11.835938 6.8125-4.988281 4.960938-7.796875 11.703125-7.808594 18.738281-.011718 7.035157 2.773438 13.785157 7.746094 18.761719h-.011718c10.371093 10.289062 27.105468 10.265625 37.445312-.054688 10.339844-10.320312 10.398438-27.054687.128906-37.445312-3.269531-3.195312-7.277344-5.535156-11.664062-6.8125v-16.960938c-.074219-3.914062-3.257813-7.054687-7.171875-7.074218h-28.828125v-24.871094c41.855468-14.871094 74.605468-48.074219 88.910156-90.128906h24.089844v30.828125c.019531 3.914062 3.160156 7.097656 7.074218 7.171875h16.960938c1.277344 4.386718 3.617188 8.394531 6.8125 11.664062 10.375 10.359375 27.183594 10.351563 37.546875-.015625 10.367187-10.371093 10.367187-27.179687 0-37.546875-10.363281-10.371094-27.171875-10.378906-37.546875-.019531v.082031c-3.199219 3.332032-5.539062 7.394532-6.8125 11.835938h-10.035156v-30.925782c.039062-3.867187-3.058594-7.035156-6.925782-7.074218h-27.148437c2.023437-8.535156 3.234375-17.238282 3.617187-26zm16.710937-15.851563c4.890625-4.886719 12.8125-4.886719 17.703125 0 4.886719 4.886719 4.886719 12.8125 0 17.699219-4.890625 4.890625-12.8125 4.890625-17.703125 0-2.355468-2.339844-3.683594-5.527344-3.683594-8.847656 0-3.324219 1.328126-6.507813 3.683594-8.851563zm-4.386718-77.828125c4.890624-4.890625 12.8125-4.890625 17.703124 0 4.886719 4.886719 4.886719 12.8125 0 17.699219-4.898437 4.839844-12.78125 4.816406-17.648437-.050781-4.871094-4.867188-4.890625-12.753906-.054687-17.648438zm-133.769532-116.070312c-4.886718-4.886719-4.886718-12.8125 0-17.699219 4.890625-4.890625 12.8125-4.890625 17.703125 0 4.886719 4.886719 4.886719 12.8125 0 17.699219-2.339843 2.367187-5.527343 3.699218-8.851562 3.699218-3.328125 0-6.515625-1.332031-8.851563-3.699218zm-155.660156-17.699219c4.894531-4.878906 12.808594-4.878906 17.703125 0 4.886719 4.886719 4.886719 12.8125 0 17.699219-4.890625 4.886718-12.8125 4.886718-17.703125 0-4.886719-4.886719-4.886719-12.8125 0-17.699219zm-116.066406 151.46875c-4.886719 4.882813-12.804688 4.878906-17.6875-.007813-4.886719-4.882812-4.886719-12.800781 0-17.6875 4.882812-4.886718 12.800781-4.886718 17.6875-.003906 2.367187 2.335938 3.703125 5.523438 3.703125 8.847656 0 3.328126-1.335938 6.515626-3.703125 8.851563zm-4.386719 77.828125c-4.886719 4.882812-12.804687 4.882812-17.6875-.003906-4.882813-4.886719-4.882813-12.804688 0-17.6875 4.882813-4.886719 12.800781-4.890625 17.6875-.007813 4.882813 4.890625 4.882813 12.808594 0 17.699219zm4.386719 77.832031c-4.886719 4.886719-12.8125 4.886719-17.699219 0s-4.886719-12.8125 0-17.699219c4.894531-4.839843 12.78125-4.816406 17.648437.050782 4.867188 4.867187 4.890626 12.75.050782 17.648437zm133.769531 116.066407c4.234375 4.226562 4.894531 10.851562 1.574219 15.828124-3.316406 4.972657-9.6875 6.910157-15.214844 4.625-5.523438-2.285156-8.667969-8.15625-7.5-14.019531 1.164062-5.867187 6.308594-10.089843 12.289062-10.09375 3.320313-.007812 6.507813 1.308594 8.851563 3.660157zm155.660156 17.703124c-4.890625 4.878907-12.808593 4.878907-17.699219 0-4.886718-4.890624-4.886718-12.8125 0-17.703124 4.886719-4.886719 12.8125-4.886719 17.699219 0 4.886719 4.890624 4.886719 12.8125 0 17.703124zm116.066407-151.46875c4.890624-4.890624 12.8125-4.890624 17.703124 0 4.886719 4.886719 4.886719 12.8125 0 17.699219-4.890624 4.886719-12.8125 4.886719-17.703124 0-2.367188-2.335937-3.699219-5.523437-3.699219-8.851562s1.332031-6.515625 3.699219-8.851563zm-211.597657-293.816406c4.886719-4.886718 12.8125-4.886718 17.699219 0 4.886719 4.890625 4.886719 12.8125 0 17.699219s-12.8125 4.886719-17.699219 0c-2.355469-2.339844-3.679687-5.527344-3.679687-8.847656 0-3.324219 1.324218-6.507813 3.679687-8.851563zm17.699219 449.667969c-4.886719 4.882813-12.804688 4.878906-17.6875-.003906-4.882812-4.886719-4.882812-12.804688 0-17.691407 4.882812-4.882812 12.800781-4.886718 17.6875-.003906 4.882812 4.890625 4.882812 12.808594 0 17.699219zm-8.847656-93.117187c-72.628906 0-131.71875-59.089844-131.71875-131.714844 0-72.628906 59.089844-131.71875 131.71875-131.71875 72.625 0 131.714844 59.089844 131.714844 131.71875 0 72.625-59.089844 131.714844-131.714844 131.714844zm0 0"/></svg>