<?xml version="1.0" encoding="UTF-8"?>
<svg width="528px" height="330px" viewBox="0 0 528 330" version="1.1" xmlns="http://www.w3.org/2000/svg" xmlns:xlink="http://www.w3.org/1999/xlink">
    <!-- Generator: Sketch 53.2 (72643) - https://sketchapp.com -->
    <title>undraw_hologram_fjwp</title>
    <desc>Created with Sketch.</desc>
    <g id="Page-2" stroke="none" stroke-width="1" fill="none" fill-rule="evenodd">
        <g id="Login" transform="translate(-179.000000, -368.000000)" fill="#FFFFFF" fill-rule="nonzero">
            <g id="undraw_hologram_fjwp" transform="translate(179.000000, 368.000000)">
                <circle id="Oval" opacity="0.3" cx="449" cy="93" r="18"></circle>
                <circle id="Oval" cx="449" cy="93" r="10"></circle>
                <circle id="Oval" opacity="0.3" cx="437" cy="43" r="18"></circle>
                <circle id="Oval" cx="437" cy="43" r="10"></circle>
                <circle id="Oval" opacity="0.3" cx="156" cy="111" r="18"></circle>
                <circle id="Oval" cx="156" cy="110" r="10"></circle>
                <circle id="Oval" opacity="0.3" cx="171" cy="250" r="18"></circle>
                <circle id="Oval" cx="171" cy="250" r="10"></circle>
                <circle id="Oval" opacity="0.3" cx="196" cy="59" r="18"></circle>
                <circle id="Oval" cx="196" cy="59" r="10"></circle>
                <path d="M433,171 C433,231.58674 389.545674,282.025863 332.10137,292.849534 C331.877181,292.893699 331.649507,292.934466 331.421918,292.975233 C327.851397,293.630904 324.227653,294.128037 320.550685,294.46663 C320.323096,294.490411 320.098822,294.510795 319.871233,294.527781 C316.290507,294.840329 312.666763,294.997735 309,295 C308.772411,295 308.548137,295 308.320548,294.996603 C304.658301,294.979616 301.034557,294.802959 297.449315,294.46663 C297.221726,294.449644 296.997452,294.425863 296.769863,294.402082 C293.097404,294.04537 289.47366,293.527854 285.89863,292.849534 C285.671041,292.808767 285.443367,292.764603 285.219178,292.720438 C228.111199,281.628384 185,231.348932 185,171 C185,102.518027 240.518,47 309,47 C377.482,47 433,102.518027 433,171 Z" id="Path"></path>
                <rect id="Rectangle" x="331" y="118" width="1" height="101"></rect>
                <rect id="Rectangle" x="331" y="75" width="1" height="30"></rect>
                <rect id="Rectangle" x="285" y="72" width="1" height="146"></rect>
                <rect id="Rectangle" x="296" y="59" width="1" height="33"></rect>
                <rect id="Rectangle" x="296" y="108" width="1" height="101"></rect>
                <path d="M297,225 L297,295 C296.66504,294.983147 296.33496,294.959553 296,294.935959 L296,225 L297,225 Z" id="Path"></path>
                <rect id="Rectangle" x="307" y="49" width="1" height="93"></rect>
                <path d="M308,154 L308,295 C307.66504,295 307.33496,295 307,294.996598 L307,154 L308,154 Z" id="Path"></path>
                <rect id="Rectangle" x="319" y="59" width="1" height="130"></rect>
                <rect id="Rectangle" x="319" y="202" width="1" height="73"></rect>
                <path d="M320,290 L320,293.940397 C319.66504,293.963576 319.33496,293.983444 319,294 L319,290 L320,290 Z" id="Path"></path>
                <path d="M332,236 L332,291.875958 C331.670045,291.91954 331.33496,291.95977 331,292 L331,236 L332,236 Z" id="Path"></path>
                <path d="M286,236 L286,292 C285.66504,291.959681 285.329955,291.916002 285,291.872323 L285,236 L286,236 Z" id="Path"></path>
                <rect id="Rectangle" x="273" y="85" width="1" height="21"></rect>
                <rect id="Rectangle" x="273" y="122" width="1" height="96"></rect>
                <rect id="Rectangle" x="261" y="93" width="1" height="126"></rect>
                <rect id="Rectangle" x="250" y="103" width="1" height="41"></rect>
                <rect id="Rectangle" x="250" y="157" width="1" height="61"></rect>
                <rect id="Rectangle" x="238" y="114" width="1" height="68"></rect>
                <rect id="Rectangle" x="238" y="195" width="1" height="23"></rect>
                <rect id="Rectangle" x="227" y="124" width="1" height="23"></rect>
                <rect id="Rectangle" x="227" y="162" width="1" height="56"></rect>
                <rect id="Rectangle" x="215" y="129" width="1" height="89"></rect>
                <rect id="Rectangle" x="203" y="154" width="1" height="30"></rect>
                <rect id="Rectangle" x="203" y="196" width="1" height="22"></rect>
                <rect id="Rectangle" x="338" y="85" width="1" height="127"></rect>
                <rect id="Rectangle" x="353" y="93" width="1" height="20"></rect>
                <rect id="Rectangle" x="353" y="127" width="1" height="92"></rect>
                <rect id="Rectangle" x="365" y="112" width="1" height="12"></rect>
                <rect id="Rectangle" x="365" y="137" width="1" height="59"></rect>
                <rect id="Rectangle" x="365" y="208" width="1" height="10"></rect>
                <rect id="Rectangle" x="377" y="114" width="1" height="105"></rect>
                <rect id="Rectangle" x="389" y="123" width="1" height="34"></rect>
                <rect id="Rectangle" x="389" y="170" width="1" height="48"></rect>
                <rect id="Rectangle" x="400" y="129" width="1" height="89"></rect>
                <path d="M285.5,237 C283.567003,237 282,235.432997 282,233.5 C282,231.567003 283.567003,230 285.5,230 C287.432997,230 289,231.567003 289,233.5 C288.99773,235.432056 287.432056,236.99773 285.5,237 L285.5,237 Z M285.5,230.7 C283.953603,230.7 282.7,231.953603 282.7,233.5 C282.7,235.046397 283.953603,236.3 285.5,236.3 C287.046397,236.3 288.3,235.046397 288.3,233.5 C288.298231,231.954336 287.045664,230.701769 285.5,230.7 L285.5,230.7 Z" id="Shape"></path>
                <path d="M296.5,219 C294.567003,219 293,217.432997 293,215.5 C293,213.567003 294.567003,212 296.5,212 C298.432997,212 300,213.567003 300,215.5 C299.99773,217.432056 298.432056,218.99773 296.5,219 Z M296.5,212.7 C294.953603,212.7 293.7,213.953603 293.7,215.5 C293.7,217.046397 294.953603,218.3 296.5,218.3 C298.046397,218.3 299.3,217.046397 299.3,215.5 C299.298231,213.954336 298.045664,212.701769 296.5,212.7 L296.5,212.7 Z" id="Shape"></path>
                <path d="M331.5,237 C329.567003,237 328,235.432997 328,233.5 C328,231.567003 329.567003,230 331.5,230 C333.432997,230 335,231.567003 335,233.5 C334.99773,235.432056 333.432056,236.99773 331.5,237 L331.5,237 Z M331.5,230.7 C329.953603,230.7 328.7,231.953603 328.7,233.5 C328.7,235.046397 329.953603,236.3 331.5,236.3 C333.046397,236.3 334.3,235.046397 334.3,233.5 C334.298231,231.954336 333.045664,230.701769 331.5,230.7 L331.5,230.7 Z" id="Shape"></path>
                <path d="M319.5,278 C317.567003,278 316,279.567003 316,281.5 C316,283.432997 317.567003,285 319.5,285 C321.432997,285 323,283.432997 323,281.5 C322.996824,279.56832 321.43168,278.003176 319.5,278 L319.5,278 Z M319.5,284.3 C317.953603,284.3 316.7,283.046397 316.7,281.5 C316.7,279.953603 317.953603,278.7 319.5,278.7 C321.046397,278.7 322.3,279.953603 322.3,281.5 C322.297937,283.045542 321.045542,284.297937 319.5,284.3 Z" id="Shape"></path>
                <path d="M319.5,199 C317.567003,199 316,197.432997 316,195.5 C316,193.567003 317.567003,192 319.5,192 C321.432997,192 323,193.567003 323,195.5 C322.99773,197.432056 321.432056,198.99773 319.5,199 Z M319.5,192.7 C317.953603,192.7 316.7,193.953603 316.7,195.5 C316.7,197.046397 317.953603,198.3 319.5,198.3 C321.046397,198.3 322.3,197.046397 322.3,195.5 C322.298231,193.954336 321.045664,192.701769 319.5,192.7 Z" id="Shape"></path>
                <path d="M307.5,151 C305.567003,151 304,149.432997 304,147.5 C304,145.567003 305.567003,144 307.5,144 C309.432997,144 311,145.567003 311,147.5 C310.99779,149.43208 309.43208,150.99779 307.5,151 L307.5,151 Z" id="Path"></path>
                <path d="M331.5,114 C329.567003,114 328,112.432997 328,110.5 C328,108.567003 329.567003,107 331.5,107 C333.432997,107 335,108.567003 335,110.5 C334.99779,112.43208 333.43208,113.99779 331.5,114 Z M331.5,107.7 C329.953603,107.7 328.7,108.953603 328.7,110.5 C328.7,112.046397 329.953603,113.3 331.5,113.3 C333.046397,113.3 334.3,112.046397 334.3,110.5 C334.298231,108.954336 333.045664,107.701769 331.5,107.7 L331.5,107.7 Z" id="Shape"></path>
                <path d="M250.5,154 C248.567003,154 247,152.432997 247,150.5 C247,148.567003 248.567003,147 250.5,147 C252.432997,147 254,148.567003 254,150.5 C253.99779,152.43208 252.43208,153.99779 250.5,154 L250.5,154 Z M250.5,147.7 C248.953603,147.7 247.7,148.953603 247.7,150.5 C247.7,152.046397 248.953603,153.3 250.5,153.3 C252.046397,153.3 253.3,152.046397 253.3,150.5 C253.298231,148.954336 252.045664,147.701769 250.5,147.7 L250.5,147.7 Z" id="Shape"></path>
                <path d="M227.5,157 C225.567003,157 224,155.432997 224,153.5 C224,151.567003 225.567003,150 227.5,150 C229.432997,150 231,151.567003 231,153.5 C230.99779,155.43208 229.43208,156.99779 227.5,157 L227.5,157 Z M227.5,150.7 C225.953603,150.7 224.7,151.953603 224.7,153.5 C224.7,155.046397 225.953603,156.3 227.5,156.3 C229.046397,156.3 230.3,155.046397 230.3,153.5 C230.298231,151.954336 229.045664,150.701769 227.5,150.7 L227.5,150.7 Z" id="Shape"></path>
                <path d="M238.5,192 C236.567003,192 235,190.432997 235,188.5 C235,186.567003 236.567003,185 238.5,185 C240.432997,185 242,186.567003 242,188.5 C241.99779,190.43208 240.43208,191.99779 238.5,192 L238.5,192 Z" id="Path"></path>
                <path d="M331.5,75 C329.567003,75 328,73.4329966 328,71.5 C328,69.5670034 329.567003,68 331.5,68 C333.432997,68 335,69.5670034 335,71.5 C334.99779,73.4320803 333.43208,74.9977896 331.5,75 L331.5,75 Z M331.5,68.7 C329.953603,68.7 328.7,69.9536027 328.7,71.5 C328.7,73.0463973 329.953603,74.3 331.5,74.3 C333.046397,74.3 334.3,73.0463973 334.3,71.5 C334.298231,69.9543359 333.045664,68.7017687 331.5,68.7 L331.5,68.7 Z" id="Shape"></path>
                <path d="M273.500051,117 C272.084454,117 270.808246,116.147265 270.26652,114.839424 C269.724794,113.531582 270.024235,112.026192 271.025214,111.025214 C272.026192,110.024235 273.531582,109.724794 274.839424,110.26652 C276.147265,110.808246 277,112.084454 277,113.500051 C276.99779,115.432103 275.432103,116.99779 273.500051,117 L273.500051,117 Z M273.500051,110.700092 C271.953676,110.700092 270.700092,111.953676 270.700092,113.500051 C270.700092,115.046426 271.953676,116.30001 273.500051,116.30001 C275.046426,116.30001 276.30001,115.046426 276.30001,113.500051 C276.298242,111.95441 275.045693,110.701861 273.500051,110.700092 L273.500051,110.700092 Z" id="Shape"></path>
                <path d="M262.5,93 C260.567003,93 259,91.4329966 259,89.5 C259,87.5670034 260.567003,86 262.5,86 C264.432997,86 266,87.5670034 266,89.5 C265.99779,91.4320803 264.43208,92.9977896 262.5,93 Z M262.5,86.7 C260.953603,86.7 259.7,87.9536027 259.7,89.5 C259.7,91.0463973 260.953603,92.3 262.5,92.3 C264.046397,92.3 265.3,91.0463973 265.3,89.5 C265.298231,87.9543359 264.045664,86.7017687 262.5,86.7 L262.5,86.7 Z" id="Shape"></path>
                <path d="M204.5,193 C202.567003,193 201,191.432997 201,189.5 C201,187.567003 202.567003,186 204.5,186 C206.432997,186 208,187.567003 208,189.5 C207.99773,191.432056 206.432056,192.99773 204.5,193 L204.5,193 Z M204.5,186.7 C202.953603,186.7 201.7,187.953603 201.7,189.5 C201.7,191.046397 202.953603,192.3 204.5,192.3 C206.046397,192.3 207.3,191.046397 207.3,189.5 C207.298231,187.954336 206.045664,186.701769 204.5,186.7 L204.5,186.7 Z" id="Shape"></path>
                <rect id="Rectangle" x="411" y="154" width="1" height="30"></rect>
                <rect id="Rectangle" x="411" y="196" width="1" height="22"></rect>
                <path d="M411.5,193 C409.567003,193 408,191.432997 408,189.5 C408,187.567003 409.567003,186 411.5,186 C413.432997,186 415,187.567003 415,189.5 C414.99773,191.432056 413.432056,192.99773 411.5,193 L411.5,193 Z M411.5,186.7 C409.953603,186.7 408.7,187.953603 408.7,189.5 C408.7,191.046397 409.953603,192.3 411.5,192.3 C413.046397,192.3 414.3,191.046397 414.3,189.5 C414.298231,187.954336 413.045664,186.701769 411.5,186.7 Z" id="Shape"></path>
                <path d="M388.5,167 C386.567003,167 385,165.432997 385,163.5 C385,161.567003 386.567003,160 388.5,160 C390.432997,160 392,161.567003 392,163.5 C391.99779,165.43208 390.43208,166.99779 388.5,167 L388.5,167 Z M388.5,160.7 C386.953603,160.7 385.7,161.953603 385.7,163.5 C385.7,165.046397 386.953603,166.3 388.5,166.3 C390.046397,166.3 391.3,165.046397 391.3,163.5 C391.298231,161.954336 390.045664,160.701769 388.5,160.7 L388.5,160.7 Z" id="Shape"></path>
                <path d="M365.5,206 C363.567003,206 362,204.432997 362,202.5 C362,200.567003 363.567003,199 365.5,199 C367.432997,199 369,200.567003 369,202.5 C368.99773,204.432056 367.432056,205.99773 365.5,206 L365.5,206 Z M365.5,199.7 C363.953603,199.7 362.7,200.953603 362.7,202.5 C362.7,204.046397 363.953603,205.3 365.5,205.3 C367.046397,205.3 368.3,204.046397 368.3,202.5 C368.298231,200.954336 367.045664,199.701769 365.5,199.7 L365.5,199.7 Z" id="Shape"></path>
                <path d="M296.5,103 C294.567003,103 293,101.432997 293,99.5 C293,97.5670034 294.567003,96 296.5,96 C298.432997,96 300,97.5670034 300,99.5 C299.99779,101.43208 298.43208,102.99779 296.5,103 L296.5,103 Z" id="Path"></path>
                <path d="M365.5,134 C363.567003,134 362,132.432997 362,130.5 C362,128.567003 363.567003,127 365.5,127 C367.432997,127 369,128.567003 369,130.5 C368.99779,132.43208 367.43208,133.99779 365.5,134 Z M365.5,127.7 C363.953603,127.7 362.7,128.953603 362.7,130.5 C362.7,132.046397 363.953603,133.3 365.5,133.3 C367.046397,133.3 368.3,132.046397 368.3,130.5 C368.298231,128.954336 367.045664,127.701769 365.5,127.7 L365.5,127.7 Z" id="Shape"></path>
                <path d="M388.5,124 C386.567003,124 385,122.432997 385,120.5 C385,118.567003 386.567003,117 388.5,117 C390.432997,117 392,118.567003 392,120.5 C391.99779,122.43208 390.43208,123.99779 388.5,124 Z" id="Path"></path>
                <path d="M353.5,123 C351.567003,123 350,121.432997 350,119.5 C350,117.567003 351.567003,116 353.5,116 C355.432997,116 357,117.567003 357,119.5 C356.99779,121.43208 355.43208,122.99779 353.5,123 Z" id="Path"></path>
                <polygon id="Path" points="449 123 388 121.971676 388.011585 121.289989 448.3185 122.306725 448.3185 93 449 93"></polygon>
                <circle id="Oval" opacity="0.3" cx="510" cy="63" r="18"></circle>
                <circle id="Oval" cx="510" cy="63" r="10"></circle>
                <polygon id="Path" points="510 93 449 91.9716759 449.011585 91.2899894 509.3185 92.3067248 509.3185 63 510 63"></polygon>
                <polygon id="Path" points="353.633113 120 353 119.737422 385.326846 43 437 43 437 43.6802541 385.783675 43.6802541"></polygon>
                <polygon id="Path" points="309 148 156 148 156 111 156.678492 111 156.678492 147.321101 309 147.321101"></polygon>
                <circle id="Oval" opacity="0.3" cx="18" cy="215" r="18"></circle>
                <circle id="Oval" cx="18" cy="214" r="10"></circle>
                <polygon id="Path" points="171 252 18 252 18 215 18.6784922 215 18.6784922 251.321101 171 251.321101"></polygon>
                <polygon id="Path" points="297 100 195 100 195 59 195.682274 59 195.682274 99.3278689 297 99.3278689"></polygon>
                <circle id="Oval" opacity="0.3" cx="95" cy="18" r="18"></circle>
                <circle id="Oval" cx="94" cy="18" r="10"></circle>
                <polygon id="Path" points="195 59 93 59 93 18 93.6822742 18 93.6822742 58.3278689 195 58.3278689"></polygon>
                <polygon id="Path" points="239 251 172 251 172 250.318919 238.326633 250.318919 238.326633 188 239 188"></polygon>
                <circle id="Oval" opacity="0.3" cx="103" cy="312" r="18"></circle>
                <circle id="Oval" cx="103" cy="312" r="10"></circle>
                <polygon id="Path" points="171 313 104 313 104 312.318919 170.326633 312.318919 170.326633 250 171 250"></polygon>
            </g>
        </g>
    </g>
</svg>