<?xml version="1.0" encoding="UTF-8"?>
<svg width="481px" height="259px" viewBox="0 0 481 259" version="1.1" xmlns="http://www.w3.org/2000/svg" xmlns:xlink="http://www.w3.org/1999/xlink">
    <!-- Generator: Sketch 53.2 (72643) - https://sketchapp.com -->
    <title>undraw_hacker_mind_6y85</title>
    <desc>Created with Sketch.</desc>
    <g id="Page-2" stroke="none" stroke-width="1" fill="none" fill-rule="evenodd">
        <g id="Login" transform="translate(-240.000000, -821.000000)" fill-rule="nonzero">
            <g id="undraw_hacker_mind_6y85" transform="translate(240.000000, 821.000000)">
                <rect id="Rectangle" fill="#FFFFFF" x="0" y="0" width="481" height="259"></rect>
                <rect id="Rectangle" fill="#000000" x="88" y="36" width="4" height="6"></rect>
                <rect id="Rectangle" fill="#000000" x="101" y="35" width="4" height="6"></rect>
                <rect id="Rectangle" fill="#000000" x="109" y="35" width="4" height="6"></rect>
                <rect id="Rectangle" fill="#000000" x="109" y="56" width="4" height="6"></rect>
                <rect id="Rectangle" fill="#000000" x="117" y="45" width="4" height="6"></rect>
                <rect id="Rectangle" fill="#000000" x="117" y="57" width="4" height="6"></rect>
                <rect id="Rectangle" fill="#000000" x="109" y="78" width="4" height="6"></rect>
                <rect id="Rectangle" fill="#000000" x="117" y="89" width="4" height="6"></rect>
                <rect id="Rectangle" fill="#000000" x="109" y="130" width="4" height="6"></rect>
                <rect id="Rectangle" fill="#000000" x="101" y="89" width="4" height="6"></rect>
                <rect id="Rectangle" fill="#000000" x="88" y="48" width="4" height="6"></rect>
                <rect id="Rectangle" fill="#000000" x="88" y="154" width="4" height="6"></rect>
                <rect id="Rectangle" fill="#000000" x="88" y="176" width="4" height="6"></rect>
                <rect id="Rectangle" fill="#000000" x="88" y="187" width="4" height="6"></rect>
                <rect id="Rectangle" fill="#000000" x="86" y="60" width="6" height="1"></rect>
                <rect id="Rectangle" fill="#000000" x="108" y="69" width="6" height="1"></rect>
                <rect id="Rectangle" fill="#000000" x="86" y="114" width="6" height="1"></rect>
                <rect id="Rectangle" fill="#000000" x="86" y="123" width="6" height="1"></rect>
                <rect id="Rectangle" fill="#000000" x="108" y="177" width="6" height="1"></rect>
                <rect id="Rectangle" fill="#000000" x="102" y="197" width="6" height="1"></rect>
                <polygon id="Path" fill="#000000" points="88 67 88 68.4998785 89.5997926 68.4998785 89.5997926 71.5001215 88 71.5001215 88 73 92 73 92 67"></polygon>
                <polygon id="Path" fill="#000000" points="101 56 101 57.4998785 102.599793 57.4998785 102.599793 60.5001215 101 60.5001215 101 62 105 62 105 56"></polygon>
                <polygon id="Path" fill="#000000" points="117 66 117 67.500243 118.599793 67.500243 118.599793 70.500243 117 70.500243 117 72 121 72 121 66"></polygon>
                <polygon id="Path" fill="#000000" points="117 99 117 100.499878 118.599793 100.499878 118.599793 103.500122 117 103.500122 117 105 121 105 121 99"></polygon>
                <polygon id="Path" fill="#000000" points="117 111 117 112.500243 118.599793 112.500243 118.599793 115.500243 117 115.500243 117 117 121 117 121 111"></polygon>
                <polygon id="Path" fill="#000000" points="117 77 117 78.499757 118.599793 78.499757 118.599793 81.499757 117 81.499757 117 83 121 83 121 77"></polygon>
                <polygon id="Path" fill="#000000" points="109 45 109 46.500243 110.600104 46.500243 110.600104 49.499757 109 49.499757 109 51 113 51 113 45"></polygon>
                <rect id="Rectangle" fill="#000000" x="109" y="99" width="4" height="6"></rect>
                <rect id="Rectangle" fill="#000000" x="109" y="120" width="4" height="6"></rect>
                <polygon id="Path" fill="#000000" points="109 110 109 111.499757 110.600104 111.499757 110.600104 114.499757 109 114.499757 109 116 113 116 113 110"></polygon>
                <polygon id="Path" fill="#000000" points="101 66 101 67.500243 102.599793 67.500243 102.599793 70.500243 101 70.500243 101 72 105 72 105 66"></polygon>
                <polygon id="Path" fill="#000000" points="101 78 101 79.500243 102.599793 79.500243 102.599793 82.499757 101 82.499757 101 84 105 84 105 78"></polygon>
                <rect id="Rectangle" fill="#000000" x="101" y="111" width="4" height="6"></rect>
                <polygon id="Path" fill="#000000" points="101 99 101 100.499878 102.599793 100.499878 102.599793 103.500122 101 103.500122 101 105 105 105 105 99"></polygon>
                <rect id="Rectangle" fill="#000000" x="101" y="132" width="4" height="6"></rect>
                <polygon id="Path" fill="#000000" points="101 122 101 123.499757 102.599793 123.499757 102.599793 126.499757 101 126.499757 101 128 105 128 105 122"></polygon>
                <rect id="Rectangle" fill="#000000" x="101" y="155" width="4" height="6"></rect>
                <rect id="Rectangle" fill="#000000" x="109" y="153" width="4" height="6"></rect>
                <polygon id="Path" fill="#000000" points="101 144 101 145.500243 102.599793 145.500243 102.599793 148.500243 101 148.500243 101 150 105 150 105 144"></polygon>
                <polygon id="Path" fill="#000000" points="117 144 117 145.500243 118.599793 145.500243 118.599793 148.500243 117 148.500243 117 150 121 150 121 144"></polygon>
                <rect id="Rectangle" fill="#000000" x="161" y="45" width="4" height="6"></rect>
                <rect id="Rectangle" fill="#000000" x="161" y="57" width="4" height="6"></rect>
                <rect id="Rectangle" fill="#000000" x="161" y="89" width="4" height="6"></rect>
                <polygon id="Path" fill="#000000" points="161 66 161 67.500243 162.600311 67.500243 162.600311 70.500243 161 70.500243 161 72 165 72 165 66"></polygon>
                <polygon id="Path" fill="#000000" points="161 99 161 100.499878 162.600311 100.499878 162.600311 103.500122 161 103.500122 161 105 165 105 165 99"></polygon>
                <polygon id="Path" fill="#000000" points="161 111 161 112.500243 162.600311 112.500243 162.600311 115.500243 161 115.500243 161 117 165 117 165 111"></polygon>
                <polygon id="Path" fill="#000000" points="161 77 161 78.499757 162.600311 78.499757 162.600311 81.499757 161 81.499757 161 83 165 83 165 77"></polygon>
                <polygon id="Path" fill="#000000" points="161 144 161 145.500243 162.600311 145.500243 162.600311 148.500243 161 148.500243 161 150 165 150 165 144"></polygon>
                <rect id="Rectangle" fill="#000000" x="101" y="177" width="4" height="6"></rect>
                <rect id="Rectangle" fill="#000000" x="109" y="164" width="4" height="6"></rect>
                <rect id="Rectangle" fill="#000000" x="101" y="206" width="4" height="6"></rect>
                <rect id="Rectangle" fill="#000000" x="109" y="186" width="4" height="6"></rect>
                <polygon id="Path" fill="#000000" points="101 165 101 166.499757 102.599793 166.499757 102.599793 169.499757 101 169.499757 101 171 105 171 105 165"></polygon>
                <polygon id="Path" fill="#000000" points="101 218 101 219.499878 102.599793 219.499878 102.599793 222.500122 101 222.500122 101 224 105 224 105 218"></polygon>
                <rect id="Rectangle" fill="#000000" x="148" y="35" width="4" height="6"></rect>
                <rect id="Rectangle" fill="#000000" x="148" y="89" width="4" height="6"></rect>
                <rect id="Rectangle" fill="#000000" x="148" y="197" width="6" height="1"></rect>
                <polygon id="Path" fill="#000000" points="148 56 148 57.4998785 149.600311 57.4998785 149.600311 60.5001215 148 60.5001215 148 62 152 62 152 56"></polygon>
                <polygon id="Path" fill="#000000" points="148 66 148 67.500243 149.600311 67.500243 149.600311 70.500243 148 70.500243 148 72 152 72 152 66"></polygon>
                <polygon id="Path" fill="#000000" points="148 78 148 79.500243 149.600311 79.500243 149.600311 82.499757 148 82.499757 148 84 152 84 152 78"></polygon>
                <rect id="Rectangle" fill="#000000" x="148" y="111" width="4" height="6"></rect>
                <polygon id="Path" fill="#000000" points="148 99 148 100.499878 149.600311 100.499878 149.600311 103.500122 148 103.500122 148 105 152 105 152 99"></polygon>
                <rect id="Rectangle" fill="#000000" x="148" y="132" width="4" height="6"></rect>
                <polygon id="Path" fill="#000000" points="148 122 148 123.499757 149.600311 123.499757 149.600311 126.499757 148 126.499757 148 128 152 128 152 122"></polygon>
                <rect id="Rectangle" fill="#000000" x="148" y="155" width="4" height="6"></rect>
                <polygon id="Path" fill="#000000" points="148 144 148 145.500243 149.600311 145.500243 149.600311 148.500243 148 148.500243 148 150 152 150 152 144"></polygon>
                <rect id="Rectangle" fill="#000000" x="148" y="177" width="4" height="6"></rect>
                <rect id="Rectangle" fill="#000000" x="148" y="206" width="4" height="6"></rect>
                <polygon id="Path" fill="#000000" points="148 165 148 166.499757 149.600311 166.499757 149.600311 169.499757 148 169.499757 148 171 152 171 152 165"></polygon>
                <polygon id="Path" fill="#000000" points="148 218 148 219.499878 149.600311 219.499878 149.600311 222.500122 148 222.500122 148 224 152 224 152 218"></polygon>
                <rect id="Rectangle" fill="#000000" x="169" y="35" width="4" height="6"></rect>
                <rect id="Rectangle" fill="#000000" x="169" y="89" width="4" height="6"></rect>
                <rect id="Rectangle" fill="#000000" x="169" y="197" width="6" height="1"></rect>
                <polygon id="Path" fill="#000000" points="169 56 169 57.4998785 170.600311 57.4998785 170.600311 60.5001215 169 60.5001215 169 62 173 62 173 56"></polygon>
                <polygon id="Path" fill="#000000" points="169 66 169 67.500243 170.600311 67.500243 170.600311 70.500243 169 70.500243 169 72 173 72 173 66"></polygon>
                <polygon id="Path" fill="#000000" points="169 78 169 79.500243 170.600311 79.500243 170.600311 82.499757 169 82.499757 169 84 173 84 173 78"></polygon>
                <rect id="Rectangle" fill="#000000" x="169" y="111" width="4" height="6"></rect>
                <polygon id="Path" fill="#000000" points="169 99 169 100.499878 170.600311 100.499878 170.600311 103.500122 169 103.500122 169 105 173 105 173 99"></polygon>
                <rect id="Rectangle" fill="#000000" x="169" y="132" width="4" height="6"></rect>
                <polygon id="Path" fill="#000000" points="169 122 169 123.499757 170.600311 123.499757 170.600311 126.499757 169 126.499757 169 128 173 128 173 122"></polygon>
                <rect id="Rectangle" fill="#000000" x="169" y="155" width="4" height="6"></rect>
                <polygon id="Path" fill="#000000" points="169 144 169 145.500243 170.600311 145.500243 170.600311 148.500243 169 148.500243 169 150 173 150 173 144"></polygon>
                <rect id="Rectangle" fill="#000000" x="169" y="177" width="4" height="6"></rect>
                <rect id="Rectangle" fill="#000000" x="169" y="206" width="4" height="6"></rect>
                <polygon id="Path" fill="#000000" points="169 165 169 166.499757 170.600311 166.499757 170.600311 169.499757 169 169.499757 169 171 173 171 173 165"></polygon>
                <polygon id="Path" fill="#000000" points="169 218 169 219.499878 170.600311 219.499878 170.600311 222.500122 169 222.500122 169 224 173 224 173 218"></polygon>
                <polygon id="Path" fill="#000000" points="109 206 109 207.499878 110.600104 207.499878 110.600104 210.500122 109 210.500122 109 212 113 212 113 206"></polygon>
                <polygon id="Path" fill="#000000" points="109 217 109 218.499878 110.600104 218.499878 110.600104 221.500122 109 221.500122 109 223 113 223 113 217"></polygon>
                <polygon id="Path" fill="#000000" points="88 89 88 90.499757 89.5997926 90.499757 89.5997926 93.499757 88 93.499757 88 95 92 95 92 89"></polygon>
                <polygon id="Path" fill="#000000" points="88 132 88 133.499878 89.5997926 133.499878 89.5997926 136.500122 88 136.500122 88 138 92 138 92 132"></polygon>
                <polygon id="Path" fill="#000000" points="88 143 88 144.500243 89.5997926 144.500243 89.5997926 147.500243 88 147.500243 88 149 92 149 92 143"></polygon>
                <polygon id="Path" fill="#000000" points="88 165 88 166.499878 89.5997926 166.499878 89.5997926 169.500122 88 169.500122 88 171 92 171 92 165"></polygon>
                <polygon id="Path" fill="#000000" points="88 196 88 197.500243 89.5997926 197.500243 89.5997926 200.500243 88 200.500243 88 202 92 202 92 196"></polygon>
                <polygon id="Path" fill="#000000" points="88 206 88 207.499878 89.5997926 207.499878 89.5997926 210.500122 88 210.500122 88 212 92 212 92 206"></polygon>
                <rect id="Rectangle" fill="#000000" x="131" y="36" width="4" height="6"></rect>
                <rect id="Rectangle" fill="#000000" x="131" y="48" width="4" height="6"></rect>
                <rect id="Rectangle" fill="#000000" x="129" y="60" width="6" height="1"></rect>
                <rect id="Rectangle" fill="#000000" x="129" y="114" width="6" height="1"></rect>
                <rect id="Rectangle" fill="#000000" x="129" y="123" width="6" height="1"></rect>
                <polygon id="Path" fill="#000000" points="131 67 131 68.4998785 132.599793 68.4998785 132.599793 71.5001215 131 71.5001215 131 73 135 73 135 67"></polygon>
                <polygon id="Path" fill="#000000" points="131 89 131 90.499757 132.599793 90.499757 132.599793 93.499757 131 93.499757 131 95 135 95 135 89"></polygon>
                <polygon id="Path" fill="#000000" points="131 132 131 133.499878 132.599793 133.499878 132.599793 136.500122 131 136.500122 131 138 135 138 135 132"></polygon>
                <rect id="Rectangle" fill="#000000" x="179" y="111" width="4" height="6"></rect>
                <rect id="Rectangle" fill="#000000" x="179" y="122" width="4" height="6"></rect>
                <rect id="Rectangle" fill="#000000" x="177" y="133" width="6" height="1"></rect>
                <rect id="Rectangle" fill="#000000" x="177" y="188" width="6" height="1"></rect>
                <rect id="Rectangle" fill="#000000" x="177" y="197" width="6" height="1"></rect>
                <polygon id="Path" fill="#000000" points="179 141 179 142.499757 180.599793 142.499757 180.599793 145.499757 179 145.499757 179 147 183 147 183 141"></polygon>
                <polygon id="Path" fill="#000000" points="179 162 179 163.500243 180.599793 163.500243 180.599793 166.499757 179 166.499757 179 168 183 168 183 162"></polygon>
                <polygon id="Path" fill="#000000" points="179 206 179 207.499878 180.599793 207.499878 180.599793 210.500122 179 210.500122 179 212 183 212 183 206"></polygon>
                <rect id="Rectangle" fill="#000000" x="193" y="36" width="4" height="6"></rect>
                <rect id="Rectangle" fill="#000000" x="207" y="35" width="4" height="6"></rect>
                <rect id="Rectangle" fill="#000000" x="216" y="35" width="4" height="6"></rect>
                <rect id="Rectangle" fill="#000000" x="216" y="56" width="4" height="6"></rect>
                <rect id="Rectangle" fill="#000000" x="224" y="45" width="4" height="6"></rect>
                <rect id="Rectangle" fill="#000000" x="224" y="57" width="4" height="6"></rect>
                <rect id="Rectangle" fill="#000000" x="216" y="78" width="4" height="6"></rect>
                <rect id="Rectangle" fill="#000000" x="224" y="89" width="4" height="6"></rect>
                <rect id="Rectangle" fill="#000000" x="216" y="130" width="4" height="6"></rect>
                <rect id="Rectangle" fill="#000000" x="207" y="89" width="4" height="6"></rect>
                <rect id="Rectangle" fill="#000000" x="193" y="48" width="4" height="6"></rect>
                <rect id="Rectangle" fill="#000000" x="193" y="154" width="4" height="6"></rect>
                <rect id="Rectangle" fill="#000000" x="193" y="176" width="4" height="6"></rect>
                <rect id="Rectangle" fill="#000000" x="193" y="187" width="4" height="6"></rect>
                <rect id="Rectangle" fill="#000000" x="191" y="60" width="6" height="1"></rect>
                <rect id="Rectangle" fill="#000000" x="215" y="69" width="6" height="1"></rect>
                <rect id="Rectangle" fill="#000000" x="191" y="114" width="6" height="1"></rect>
                <rect id="Rectangle" fill="#000000" x="191" y="123" width="6" height="1"></rect>
                <rect id="Rectangle" fill="#000000" x="215" y="177" width="6" height="1"></rect>
                <rect id="Rectangle" fill="#000000" x="207" y="197" width="6" height="1"></rect>
                <polygon id="Path" fill="#000000" points="193 67 193 68.4998785 194.600311 68.4998785 194.600311 71.5001215 193 71.5001215 193 73 197 73 197 67"></polygon>
                <polygon id="Path" fill="#000000" points="207 56 207 57.4998785 208.599793 57.4998785 208.599793 60.5001215 207 60.5001215 207 62 211 62 211 56"></polygon>
                <polygon id="Path" fill="#000000" points="224 66 224 67.500243 225.599793 67.500243 225.599793 70.500243 224 70.500243 224 72 228 72 228 66"></polygon>
                <polygon id="Path" fill="#000000" points="224 99 224 100.499878 225.599793 100.499878 225.599793 103.500122 224 103.500122 224 105 228 105 228 99"></polygon>
                <polygon id="Path" fill="#000000" points="224 111 224 112.500243 225.599793 112.500243 225.599793 115.500243 224 115.500243 224 117 228 117 228 111"></polygon>
                <polygon id="Path" fill="#000000" points="224 77 224 78.499757 225.599793 78.499757 225.599793 81.499757 224 81.499757 224 83 228 83 228 77"></polygon>
                <polygon id="Path" fill="#000000" points="216 45 216 46.500243 217.599793 46.500243 217.599793 49.499757 216 49.499757 216 51 220 51 220 45"></polygon>
                <rect id="Rectangle" fill="#000000" x="216" y="99" width="4" height="6"></rect>
                <rect id="Rectangle" fill="#000000" x="216" y="120" width="4" height="6"></rect>
                <polygon id="Path" fill="#000000" points="216 110 216 111.499757 217.599793 111.499757 217.599793 114.499757 216 114.499757 216 116 220 116 220 110"></polygon>
                <polygon id="Path" fill="#000000" points="207 66 207 67.500243 208.599793 67.500243 208.599793 70.500243 207 70.500243 207 72 211 72 211 66"></polygon>
                <polygon id="Path" fill="#000000" points="207 78 207 79.500243 208.599793 79.500243 208.599793 82.499757 207 82.499757 207 84 211 84 211 78"></polygon>
                <rect id="Rectangle" fill="#000000" x="207" y="111" width="4" height="6"></rect>
                <polygon id="Path" fill="#000000" points="207 99 207 100.499878 208.599793 100.499878 208.599793 103.500122 207 103.500122 207 105 211 105 211 99"></polygon>
                <rect id="Rectangle" fill="#000000" x="207" y="132" width="4" height="6"></rect>
                <polygon id="Path" fill="#000000" points="207 122 207 123.499757 208.599793 123.499757 208.599793 126.499757 207 126.499757 207 128 211 128 211 122"></polygon>
                <rect id="Rectangle" fill="#000000" x="207" y="155" width="4" height="6"></rect>
                <rect id="Rectangle" fill="#000000" x="216" y="153" width="4" height="6"></rect>
                <polygon id="Path" fill="#000000" points="207 144 207 145.500243 208.599793 145.500243 208.599793 148.500243 207 148.500243 207 150 211 150 211 144"></polygon>
                <polygon id="Path" fill="#000000" points="224 144 224 145.500243 225.599793 145.500243 225.599793 148.500243 224 148.500243 224 150 228 150 228 144"></polygon>
                <rect id="Rectangle" fill="#000000" x="267" y="45" width="4" height="6"></rect>
                <rect id="Rectangle" fill="#000000" x="267" y="57" width="4" height="6"></rect>
                <rect id="Rectangle" fill="#000000" x="267" y="89" width="4" height="6"></rect>
                <polygon id="Path" fill="#000000" points="267 66 267 67.500243 268.599793 67.500243 268.599793 70.500243 267 70.500243 267 72 271 72 271 66"></polygon>
                <polygon id="Path" fill="#000000" points="267 99 267 100.499878 268.599793 100.499878 268.599793 103.500122 267 103.500122 267 105 271 105 271 99"></polygon>
                <polygon id="Path" fill="#000000" points="267 111 267 112.500243 268.599793 112.500243 268.599793 115.500243 267 115.500243 267 117 271 117 271 111"></polygon>
                <polygon id="Path" fill="#000000" points="267 77 267 78.499757 268.599793 78.499757 268.599793 81.499757 267 81.499757 267 83 271 83 271 77"></polygon>
                <polygon id="Path" fill="#000000" points="267 144 267 145.500243 268.599793 145.500243 268.599793 148.500243 267 148.500243 267 150 271 150 271 144"></polygon>
                <rect id="Rectangle" fill="#000000" x="207" y="177" width="4" height="6"></rect>
                <rect id="Rectangle" fill="#000000" x="216" y="164" width="4" height="6"></rect>
                <rect id="Rectangle" fill="#000000" x="207" y="206" width="4" height="6"></rect>
                <rect id="Rectangle" fill="#000000" x="216" y="186" width="4" height="6"></rect>
                <polygon id="Path" fill="#000000" points="207 165 207 166.499757 208.599793 166.499757 208.599793 169.499757 207 169.499757 207 171 211 171 211 165"></polygon>
                <polygon id="Path" fill="#000000" points="207 218 207 219.499878 208.599793 219.499878 208.599793 222.500122 207 222.500122 207 224 211 224 211 218"></polygon>
                <rect id="Rectangle" fill="#000000" x="254" y="35" width="4" height="6"></rect>
                <rect id="Rectangle" fill="#000000" x="254" y="89" width="4" height="6"></rect>
                <rect id="Rectangle" fill="#000000" x="254" y="197" width="6" height="1"></rect>
                <polygon id="Path" fill="#000000" points="254 56 254 57.4998785 255.600311 57.4998785 255.600311 60.5001215 254 60.5001215 254 62 258 62 258 56"></polygon>
                <polygon id="Path" fill="#000000" points="254 66 254 67.500243 255.600311 67.500243 255.600311 70.500243 254 70.500243 254 72 258 72 258 66"></polygon>
                <polygon id="Path" fill="#000000" points="254 78 254 79.500243 255.600311 79.500243 255.600311 82.499757 254 82.499757 254 84 258 84 258 78"></polygon>
                <rect id="Rectangle" fill="#000000" x="254" y="111" width="4" height="6"></rect>
                <polygon id="Path" fill="#000000" points="254 99 254 100.499878 255.600311 100.499878 255.600311 103.500122 254 103.500122 254 105 258 105 258 99"></polygon>
                <rect id="Rectangle" fill="#000000" x="254" y="132" width="4" height="6"></rect>
                <polygon id="Path" fill="#000000" points="254 122 254 123.499757 255.600311 123.499757 255.600311 126.499757 254 126.499757 254 128 258 128 258 122"></polygon>
                <rect id="Rectangle" fill="#000000" x="254" y="155" width="4" height="6"></rect>
                <polygon id="Path" fill="#000000" points="254 144 254 145.500243 255.600311 145.500243 255.600311 148.500243 254 148.500243 254 150 258 150 258 144"></polygon>
                <rect id="Rectangle" fill="#000000" x="254" y="177" width="4" height="6"></rect>
                <rect id="Rectangle" fill="#000000" x="254" y="206" width="4" height="6"></rect>
                <polygon id="Path" fill="#000000" points="254 165 254 166.499757 255.600311 166.499757 255.600311 169.499757 254 169.499757 254 171 258 171 258 165"></polygon>
                <polygon id="Path" fill="#000000" points="254 218 254 219.499878 255.600311 219.499878 255.600311 222.500122 254 222.500122 254 224 258 224 258 218"></polygon>
                <rect id="Rectangle" fill="#000000" x="274" y="35" width="4" height="6"></rect>
                <rect id="Rectangle" fill="#000000" x="274" y="89" width="4" height="6"></rect>
                <rect id="Rectangle" fill="#000000" x="274" y="197" width="6" height="1"></rect>
                <polygon id="Path" fill="#000000" points="274 56 274 57.4998785 275.600311 57.4998785 275.600311 60.5001215 274 60.5001215 274 62 278 62 278 56"></polygon>
                <polygon id="Path" fill="#000000" points="274 66 274 67.500243 275.600311 67.500243 275.600311 70.500243 274 70.500243 274 72 278 72 278 66"></polygon>
                <polygon id="Path" fill="#000000" points="274 78 274 79.500243 275.600311 79.500243 275.600311 82.499757 274 82.499757 274 84 278 84 278 78"></polygon>
                <rect id="Rectangle" fill="#000000" x="274" y="111" width="4" height="6"></rect>
                <polygon id="Path" fill="#000000" points="274 99 274 100.499878 275.600311 100.499878 275.600311 103.500122 274 103.500122 274 105 278 105 278 99"></polygon>
                <rect id="Rectangle" fill="#000000" x="274" y="132" width="4" height="6"></rect>
                <polygon id="Path" fill="#000000" points="274 122 274 123.499757 275.600311 123.499757 275.600311 126.499757 274 126.499757 274 128 278 128 278 122"></polygon>
                <rect id="Rectangle" fill="#000000" x="274" y="155" width="4" height="6"></rect>
                <polygon id="Path" fill="#000000" points="274 144 274 145.500243 275.600311 145.500243 275.600311 148.500243 274 148.500243 274 150 278 150 278 144"></polygon>
                <rect id="Rectangle" fill="#000000" x="274" y="177" width="4" height="6"></rect>
                <rect id="Rectangle" fill="#000000" x="274" y="206" width="4" height="6"></rect>
                <polygon id="Path" fill="#000000" points="274 165 274 166.499757 275.600311 166.499757 275.600311 169.499757 274 169.499757 274 171 278 171 278 165"></polygon>
                <polygon id="Path" fill="#000000" points="274 218 274 219.499878 275.600311 219.499878 275.600311 222.500122 274 222.500122 274 224 278 224 278 218"></polygon>
                <polygon id="Path" fill="#000000" points="216 206 216 207.499878 217.599793 207.499878 217.599793 210.500122 216 210.500122 216 212 220 212 220 206"></polygon>
                <polygon id="Path" fill="#000000" points="216 217 216 218.499878 217.599793 218.499878 217.599793 221.500122 216 221.500122 216 223 220 223 220 217"></polygon>
                <polygon id="Path" fill="#000000" points="193 89 193 90.499757 194.600311 90.499757 194.600311 93.499757 193 93.499757 193 95 197 95 197 89"></polygon>
                <polygon id="Path" fill="#000000" points="193 132 193 133.499878 194.600311 133.499878 194.600311 136.500122 193 136.500122 193 138 197 138 197 132"></polygon>
                <polygon id="Path" fill="#000000" points="193 143 193 144.500243 194.600311 144.500243 194.600311 147.500243 193 147.500243 193 149 197 149 197 143"></polygon>
                <polygon id="Path" fill="#000000" points="193 165 193 166.499878 194.600311 166.499878 194.600311 169.500122 193 169.500122 193 171 197 171 197 165"></polygon>
                <polygon id="Path" fill="#000000" points="193 196 193 197.500243 194.600311 197.500243 194.600311 200.500243 193 200.500243 193 202 197 202 197 196"></polygon>
                <polygon id="Path" fill="#000000" points="193 206 193 207.499878 194.600311 207.499878 194.600311 210.500122 193 210.500122 193 212 197 212 197 206"></polygon>
                <rect id="Rectangle" fill="#000000" x="237" y="36" width="4" height="6"></rect>
                <rect id="Rectangle" fill="#000000" x="237" y="48" width="4" height="6"></rect>
                <rect id="Rectangle" fill="#000000" x="236" y="60" width="6" height="1"></rect>
                <rect id="Rectangle" fill="#000000" x="236" y="114" width="6" height="1"></rect>
                <rect id="Rectangle" fill="#000000" x="236" y="123" width="6" height="1"></rect>
                <polygon id="Path" fill="#000000" points="237 67 237 68.4998785 238.600311 68.4998785 238.600311 71.5001215 237 71.5001215 237 73 241 73 241 67"></polygon>
                <polygon id="Path" fill="#000000" points="237 89 237 90.499757 238.600311 90.499757 238.600311 93.499757 237 93.499757 237 95 241 95 241 89"></polygon>
                <polygon id="Path" fill="#000000" points="237 132 237 133.499878 238.600311 133.499878 238.600311 136.500122 237 136.500122 237 138 241 138 241 132"></polygon>
                <rect id="Rectangle" fill="#000000" x="286" y="111" width="4" height="6"></rect>
                <rect id="Rectangle" fill="#000000" x="286" y="122" width="4" height="6"></rect>
                <rect id="Rectangle" fill="#000000" x="284" y="133" width="6" height="1"></rect>
                <rect id="Rectangle" fill="#000000" x="284" y="188" width="6" height="1"></rect>
                <rect id="Rectangle" fill="#000000" x="284" y="197" width="6" height="1"></rect>
                <polygon id="Path" fill="#000000" points="286 141 286 142.499757 287.600311 142.499757 287.600311 145.499757 286 145.499757 286 147 290 147 290 141"></polygon>
                <polygon id="Path" fill="#000000" points="286 162 286 163.500243 287.600311 163.500243 287.600311 166.499757 286 166.499757 286 168 290 168 290 162"></polygon>
                <polygon id="Path" fill="#000000" points="286 206 286 207.499878 287.600311 207.499878 287.600311 210.500122 286 210.500122 286 212 290 212 290 206"></polygon>
                <rect id="Rectangle" fill="#000000" x="299" y="36" width="4" height="6"></rect>
                <rect id="Rectangle" fill="#000000" x="314" y="35" width="4" height="6"></rect>
                <rect id="Rectangle" fill="#000000" x="321" y="35" width="4" height="6"></rect>
                <rect id="Rectangle" fill="#000000" x="321" y="56" width="4" height="6"></rect>
                <rect id="Rectangle" fill="#000000" x="330" y="45" width="4" height="6"></rect>
                <rect id="Rectangle" fill="#000000" x="330" y="57" width="4" height="6"></rect>
                <rect id="Rectangle" fill="#000000" x="321" y="78" width="4" height="6"></rect>
                <rect id="Rectangle" fill="#000000" x="330" y="89" width="4" height="6"></rect>
                <rect id="Rectangle" fill="#000000" x="321" y="130" width="4" height="6"></rect>
                <rect id="Rectangle" fill="#000000" x="314" y="89" width="4" height="6"></rect>
                <rect id="Rectangle" fill="#000000" x="299" y="48" width="4" height="6"></rect>
                <rect id="Rectangle" fill="#000000" x="299" y="154" width="4" height="6"></rect>
                <rect id="Rectangle" fill="#000000" x="299" y="176" width="4" height="6"></rect>
                <rect id="Rectangle" fill="#000000" x="299" y="187" width="4" height="6"></rect>
                <rect id="Rectangle" fill="#000000" x="298" y="60" width="6" height="1"></rect>
                <rect id="Rectangle" fill="#000000" x="320" y="69" width="6" height="1"></rect>
                <rect id="Rectangle" fill="#000000" x="298" y="114" width="6" height="1"></rect>
                <rect id="Rectangle" fill="#000000" x="298" y="123" width="6" height="1"></rect>
                <rect id="Rectangle" fill="#000000" x="320" y="177" width="6" height="1"></rect>
                <rect id="Rectangle" fill="#000000" x="314" y="197" width="6" height="1"></rect>
                <polygon id="Path" fill="#000000" points="299 67 299 68.4998785 300.600104 68.4998785 300.600104 71.5001215 299 71.5001215 299 73 303 73 303 67"></polygon>
                <polygon id="Path" fill="#000000" points="314 56 314 57.4998785 315.599793 57.4998785 315.599793 60.5001215 314 60.5001215 314 62 318 62 318 56"></polygon>
                <polygon id="Path" fill="#000000" points="330 66 330 67.500243 331.599793 67.500243 331.599793 70.500243 330 70.500243 330 72 334 72 334 66"></polygon>
                <polygon id="Path" fill="#000000" points="330 99 330 100.499878 331.599793 100.499878 331.599793 103.500122 330 103.500122 330 105 334 105 334 99"></polygon>
                <polygon id="Path" fill="#000000" points="330 111 330 112.500243 331.599793 112.500243 331.599793 115.500243 330 115.500243 330 117 334 117 334 111"></polygon>
                <polygon id="Path" fill="#000000" points="330 77 330 78.499757 331.599793 78.499757 331.599793 81.499757 330 81.499757 330 83 334 83 334 77"></polygon>
                <polygon id="Path" fill="#000000" points="321 45 321 46.500243 322.599793 46.500243 322.599793 49.499757 321 49.499757 321 51 325 51 325 45"></polygon>
                <rect id="Rectangle" fill="#000000" x="321" y="99" width="4" height="6"></rect>
                <rect id="Rectangle" fill="#000000" x="321" y="120" width="4" height="6"></rect>
                <polygon id="Path" fill="#000000" points="321 110 321 111.499757 322.599793 111.499757 322.599793 114.499757 321 114.499757 321 116 325 116 325 110"></polygon>
                <polygon id="Path" fill="#000000" points="314 66 314 67.500243 315.599793 67.500243 315.599793 70.500243 314 70.500243 314 72 318 72 318 66"></polygon>
                <polygon id="Path" fill="#000000" points="314 78 314 79.500243 315.599793 79.500243 315.599793 82.499757 314 82.499757 314 84 318 84 318 78"></polygon>
                <rect id="Rectangle" fill="#000000" x="314" y="111" width="4" height="6"></rect>
                <polygon id="Path" fill="#000000" points="314 99 314 100.499878 315.599793 100.499878 315.599793 103.500122 314 103.500122 314 105 318 105 318 99"></polygon>
                <rect id="Rectangle" fill="#000000" x="314" y="132" width="4" height="6"></rect>
                <polygon id="Path" fill="#000000" points="314 122 314 123.499757 315.599793 123.499757 315.599793 126.499757 314 126.499757 314 128 318 128 318 122"></polygon>
                <rect id="Rectangle" fill="#000000" x="314" y="155" width="4" height="6"></rect>
                <rect id="Rectangle" fill="#000000" x="321" y="153" width="4" height="6"></rect>
                <polygon id="Path" fill="#000000" points="314 144 314 145.500243 315.599793 145.500243 315.599793 148.500243 314 148.500243 314 150 318 150 318 144"></polygon>
                <polygon id="Path" fill="#000000" points="330 144 330 145.500243 331.599793 145.500243 331.599793 148.500243 330 148.500243 330 150 334 150 334 144"></polygon>
                <rect id="Rectangle" fill="#000000" x="373" y="45" width="4" height="6"></rect>
                <rect id="Rectangle" fill="#000000" x="373" y="57" width="4" height="6"></rect>
                <rect id="Rectangle" fill="#000000" x="373" y="89" width="4" height="6"></rect>
                <polygon id="Path" fill="#000000" points="373 66 373 67.500243 374.599793 67.500243 374.599793 70.500243 373 70.500243 373 72 377 72 377 66"></polygon>
                <polygon id="Path" fill="#000000" points="373 99 373 100.499878 374.599793 100.499878 374.599793 103.500122 373 103.500122 373 105 377 105 377 99"></polygon>
                <polygon id="Path" fill="#000000" points="373 111 373 112.500243 374.599793 112.500243 374.599793 115.500243 373 115.500243 373 117 377 117 377 111"></polygon>
                <polygon id="Path" fill="#000000" points="373 77 373 78.499757 374.599793 78.499757 374.599793 81.499757 373 81.499757 373 83 377 83 377 77"></polygon>
                <polygon id="Path" fill="#000000" points="373 144 373 145.500243 374.599793 145.500243 374.599793 148.500243 373 148.500243 373 150 377 150 377 144"></polygon>
                <rect id="Rectangle" fill="#000000" x="314" y="177" width="4" height="6"></rect>
                <rect id="Rectangle" fill="#000000" x="321" y="164" width="4" height="6"></rect>
                <rect id="Rectangle" fill="#000000" x="314" y="206" width="4" height="6"></rect>
                <rect id="Rectangle" fill="#000000" x="321" y="186" width="4" height="6"></rect>
                <polygon id="Path" fill="#000000" points="314 165 314 166.499757 315.599793 166.499757 315.599793 169.499757 314 169.499757 314 171 318 171 318 165"></polygon>
                <polygon id="Path" fill="#000000" points="314 218 314 219.499878 315.599793 219.499878 315.599793 222.500122 314 222.500122 314 224 318 224 318 218"></polygon>
                <rect id="Rectangle" fill="#000000" x="361" y="35" width="4" height="6"></rect>
                <rect id="Rectangle" fill="#000000" x="361" y="89" width="4" height="6"></rect>
                <rect id="Rectangle" fill="#000000" x="360" y="197" width="6" height="1"></rect>
                <polygon id="Path" fill="#000000" points="361 56 361 57.4998785 362.599793 57.4998785 362.599793 60.5001215 361 60.5001215 361 62 365 62 365 56"></polygon>
                <polygon id="Path" fill="#000000" points="361 66 361 67.500243 362.599793 67.500243 362.599793 70.500243 361 70.500243 361 72 365 72 365 66"></polygon>
                <polygon id="Path" fill="#000000" points="361 78 361 79.500243 362.599793 79.500243 362.599793 82.499757 361 82.499757 361 84 365 84 365 78"></polygon>
                <rect id="Rectangle" fill="#000000" x="361" y="111" width="4" height="6"></rect>
                <polygon id="Path" fill="#000000" points="361 99 361 100.499878 362.599793 100.499878 362.599793 103.500122 361 103.500122 361 105 365 105 365 99"></polygon>
                <rect id="Rectangle" fill="#000000" x="361" y="132" width="4" height="6"></rect>
                <polygon id="Path" fill="#000000" points="361 122 361 123.499757 362.599793 123.499757 362.599793 126.499757 361 126.499757 361 128 365 128 365 122"></polygon>
                <rect id="Rectangle" fill="#000000" x="361" y="155" width="4" height="6"></rect>
                <polygon id="Path" fill="#000000" points="361 144 361 145.500243 362.599793 145.500243 362.599793 148.500243 361 148.500243 361 150 365 150 365 144"></polygon>
                <rect id="Rectangle" fill="#000000" x="361" y="177" width="4" height="6"></rect>
                <rect id="Rectangle" fill="#000000" x="361" y="206" width="4" height="6"></rect>
                <polygon id="Path" fill="#000000" points="361 165 361 166.499757 362.599793 166.499757 362.599793 169.499757 361 169.499757 361 171 365 171 365 165"></polygon>
                <polygon id="Path" fill="#000000" points="361 218 361 219.499878 362.599793 219.499878 362.599793 222.500122 361 222.500122 361 224 365 224 365 218"></polygon>
                <rect id="Rectangle" fill="#000000" x="381" y="35" width="4" height="6"></rect>
                <rect id="Rectangle" fill="#000000" x="381" y="89" width="4" height="6"></rect>
                <rect id="Rectangle" fill="#000000" x="381" y="197" width="6" height="1"></rect>
                <polygon id="Path" fill="#000000" points="381 56 381 57.4998785 382.599793 57.4998785 382.599793 60.5001215 381 60.5001215 381 62 385 62 385 56"></polygon>
                <polygon id="Path" fill="#000000" points="381 66 381 67.500243 382.599793 67.500243 382.599793 70.500243 381 70.500243 381 72 385 72 385 66"></polygon>
                <polygon id="Path" fill="#000000" points="381 78 381 79.500243 382.599793 79.500243 382.599793 82.499757 381 82.499757 381 84 385 84 385 78"></polygon>
                <rect id="Rectangle" fill="#000000" x="381" y="111" width="4" height="6"></rect>
                <polygon id="Path" fill="#000000" points="381 99 381 100.499878 382.599793 100.499878 382.599793 103.500122 381 103.500122 381 105 385 105 385 99"></polygon>
                <rect id="Rectangle" fill="#000000" x="381" y="132" width="4" height="6"></rect>
                <polygon id="Path" fill="#000000" points="381 122 381 123.499757 382.599793 123.499757 382.599793 126.499757 381 126.499757 381 128 385 128 385 122"></polygon>
                <rect id="Rectangle" fill="#000000" x="381" y="155" width="4" height="6"></rect>
                <polygon id="Path" fill="#000000" points="381 144 381 145.500243 382.599793 145.500243 382.599793 148.500243 381 148.500243 381 150 385 150 385 144"></polygon>
                <rect id="Rectangle" fill="#000000" x="381" y="177" width="4" height="6"></rect>
                <rect id="Rectangle" fill="#000000" x="381" y="206" width="4" height="6"></rect>
                <polygon id="Path" fill="#000000" points="381 165 381 166.499757 382.599793 166.499757 382.599793 169.499757 381 169.499757 381 171 385 171 385 165"></polygon>
                <polygon id="Path" fill="#000000" points="381 218 381 219.499878 382.599793 219.499878 382.599793 222.500122 381 222.500122 381 224 385 224 385 218"></polygon>
                <polygon id="Path" fill="#000000" points="321 206 321 207.499878 322.599793 207.499878 322.599793 210.500122 321 210.500122 321 212 325 212 325 206"></polygon>
                <polygon id="Path" fill="#000000" points="321 217 321 218.499878 322.599793 218.499878 322.599793 221.500122 321 221.500122 321 223 325 223 325 217"></polygon>
                <polygon id="Path" fill="#000000" points="299 89 299 90.499757 300.600104 90.499757 300.600104 93.499757 299 93.499757 299 95 303 95 303 89"></polygon>
                <polygon id="Path" fill="#000000" points="299 132 299 133.499878 300.600104 133.499878 300.600104 136.500122 299 136.500122 299 138 303 138 303 132"></polygon>
                <polygon id="Path" fill="#000000" points="299 143 299 144.500243 300.600104 144.500243 300.600104 147.500243 299 147.500243 299 149 303 149 303 143"></polygon>
                <polygon id="Path" fill="#000000" points="299 165 299 166.499878 300.600104 166.499878 300.600104 169.500122 299 169.500122 299 171 303 171 303 165"></polygon>
                <polygon id="Path" fill="#000000" points="299 196 299 197.500243 300.600104 197.500243 300.600104 200.500243 299 200.500243 299 202 303 202 303 196"></polygon>
                <polygon id="Path" fill="#000000" points="299 206 299 207.499878 300.600104 207.499878 300.600104 210.500122 299 210.500122 299 212 303 212 303 206"></polygon>
                <rect id="Rectangle" fill="#000000" x="344" y="36" width="4" height="6"></rect>
                <rect id="Rectangle" fill="#000000" x="344" y="48" width="4" height="6"></rect>
                <rect id="Rectangle" fill="#000000" x="341" y="60" width="6" height="1"></rect>
                <rect id="Rectangle" fill="#000000" x="341" y="114" width="6" height="1"></rect>
                <rect id="Rectangle" fill="#000000" x="341" y="123" width="6" height="1"></rect>
                <polygon id="Path" fill="#000000" points="344 67 344 68.4998785 345.600311 68.4998785 345.600311 71.5001215 344 71.5001215 344 73 348 73 348 67"></polygon>
                <polygon id="Path" fill="#000000" points="344 89 344 90.499757 345.600311 90.499757 345.600311 93.499757 344 93.499757 344 95 348 95 348 89"></polygon>
                <polygon id="Path" fill="#000000" points="344 132 344 133.499878 345.600311 133.499878 345.600311 136.500122 344 136.500122 344 138 348 138 348 132"></polygon>
                <rect id="Rectangle" fill="#000000" x="392" y="111" width="4" height="6"></rect>
                <rect id="Rectangle" fill="#000000" x="392" y="122" width="4" height="6"></rect>
                <rect id="Rectangle" fill="#000000" x="389" y="133" width="6" height="1"></rect>
                <rect id="Rectangle" fill="#000000" x="389" y="188" width="6" height="1"></rect>
                <rect id="Rectangle" fill="#000000" x="389" y="197" width="6" height="1"></rect>
                <polygon id="Path" fill="#000000" points="392 141 392 142.499757 393.600311 142.499757 393.600311 145.499757 392 145.499757 392 147 396 147 396 141"></polygon>
                <polygon id="Path" fill="#000000" points="392 162 392 163.500243 393.600311 163.500243 393.600311 166.499757 392 166.499757 392 168 396 168 396 162"></polygon>
                <polygon id="Path" fill="#000000" points="392 206 392 207.499878 393.600311 207.499878 393.600311 210.500122 392 210.500122 392 212 396 212 396 206"></polygon>
                <rect id="Rectangle" fill="#3F3D56" x="263" y="124" width="1" height="26"></rect>
            </g>
        </g>
    </g>
</svg>